<svg height="542.5999965667725" version="1.1" width="682.8410181999207" xmlns="http://www.w3.org/2000/svg" xmlns:xlink="http://www.w3.org/1999/xlink" style="overflow: hidden; position: relative;" viewBox="0 0 682.8410181999207 542.5999965667725" preserveAspectRatio="xMidYMid meet"><desc style="-webkit-tap-highlight-color: rgba(0, 0, 0, 0);">Created with Raphaël 2.3.0</desc><defs style="-webkit-tap-highlight-color: rgba(0, 0, 0, 0);"><path stroke-linecap="round" d="M5,0 0,2.5 5,5z" id="raphael-marker-block" style="-webkit-tap-highlight-color: rgba(0, 0, 0, 0);"></path><marker id="raphael-marker-endblock33-obj5301o" markerHeight="3" markerWidth="3" orient="auto" refX="1.5" refY="1.5" style="-webkit-tap-highlight-color: rgba(0, 0, 0, 0);"><use xlink:href="#raphael-marker-block" transform="rotate(180 1.5 1.5) scale(0.6,0.6)" stroke-width="1.6667" fill="black" stroke="none" style="-webkit-tap-highlight-color: rgba(0, 0, 0, 0);"></use></marker><marker id="raphael-marker-endblock33-obj7og9y" markerHeight="3" markerWidth="3" orient="auto" refX="1.5" refY="1.5" style="-webkit-tap-highlight-color: rgba(0, 0, 0, 0);"><use xlink:href="#raphael-marker-block" transform="rotate(180 1.5 1.5) scale(0.6,0.6)" stroke-width="1.6667" fill="black" stroke="none" style="-webkit-tap-highlight-color: rgba(0, 0, 0, 0);"></use></marker><marker id="raphael-marker-endblock33-objh5ezk" markerHeight="3" markerWidth="3" orient="auto" refX="1.5" refY="1.5" style="-webkit-tap-highlight-color: rgba(0, 0, 0, 0);"><use xlink:href="#raphael-marker-block" transform="rotate(180 1.5 1.5) scale(0.6,0.6)" stroke-width="1.6667" fill="black" stroke="none" style="-webkit-tap-highlight-color: rgba(0, 0, 0, 0);"></use></marker><marker id="raphael-marker-endblock33-objfia23" markerHeight="3" markerWidth="3" orient="auto" refX="1.5" refY="1.5" style="-webkit-tap-highlight-color: rgba(0, 0, 0, 0);"><use xlink:href="#raphael-marker-block" transform="rotate(180 1.5 1.5) scale(0.6,0.6)" stroke-width="1.6667" fill="black" stroke="none" style="-webkit-tap-highlight-color: rgba(0, 0, 0, 0);"></use></marker><marker id="raphael-marker-endblock33-obj46rka" markerHeight="3" markerWidth="3" orient="auto" refX="1.5" refY="1.5" style="-webkit-tap-highlight-color: rgba(0, 0, 0, 0);"><use xlink:href="#raphael-marker-block" transform="rotate(180 1.5 1.5) scale(0.6,0.6)" stroke-width="1.6667" fill="black" stroke="none" style="-webkit-tap-highlight-color: rgba(0, 0, 0, 0);"></use></marker><marker id="raphael-marker-endblock33-objzz9gj" markerHeight="3" markerWidth="3" orient="auto" refX="1.5" refY="1.5" style="-webkit-tap-highlight-color: rgba(0, 0, 0, 0);"><use xlink:href="#raphael-marker-block" transform="rotate(180 1.5 1.5) scale(0.6,0.6)" stroke-width="1.6667" fill="black" stroke="none" style="-webkit-tap-highlight-color: rgba(0, 0, 0, 0);"></use></marker><marker id="raphael-marker-endblock33-objz71ww" markerHeight="3" markerWidth="3" orient="auto" refX="1.5" refY="1.5" style="-webkit-tap-highlight-color: rgba(0, 0, 0, 0);"><use xlink:href="#raphael-marker-block" transform="rotate(180 1.5 1.5) scale(0.6,0.6)" stroke-width="1.6667" fill="black" stroke="none" style="-webkit-tap-highlight-color: rgba(0, 0, 0, 0);"></use></marker><marker id="raphael-marker-endblock33-objs4zhg" markerHeight="3" markerWidth="3" orient="auto" refX="1.5" refY="1.5" style="-webkit-tap-highlight-color: rgba(0, 0, 0, 0);"><use xlink:href="#raphael-marker-block" transform="rotate(180 1.5 1.5) scale(0.6,0.6)" stroke-width="1.6667" fill="black" stroke="none" style="-webkit-tap-highlight-color: rgba(0, 0, 0, 0);"></use></marker><marker id="raphael-marker-endblock33-obj3fdtz" markerHeight="3" markerWidth="3" orient="auto" refX="1.5" refY="1.5" style="-webkit-tap-highlight-color: rgba(0, 0, 0, 0);"><use xlink:href="#raphael-marker-block" transform="rotate(180 1.5 1.5) scale(0.6,0.6)" stroke-width="1.6667" fill="black" stroke="none" style="-webkit-tap-highlight-color: rgba(0, 0, 0, 0);"></use></marker><marker id="raphael-marker-endblock33-obj67yhr" markerHeight="3" markerWidth="3" orient="auto" refX="1.5" refY="1.5" style="-webkit-tap-highlight-color: rgba(0, 0, 0, 0);"><use xlink:href="#raphael-marker-block" transform="rotate(180 1.5 1.5) scale(0.6,0.6)" stroke-width="1.6667" fill="black" stroke="none" style="-webkit-tap-highlight-color: rgba(0, 0, 0, 0);"></use></marker><marker id="raphael-marker-endblock33-obj5015z" markerHeight="3" markerWidth="3" orient="auto" refX="1.5" refY="1.5" style="-webkit-tap-highlight-color: rgba(0, 0, 0, 0);"><use xlink:href="#raphael-marker-block" transform="rotate(180 1.5 1.5) scale(0.6,0.6)" stroke-width="1.6667" fill="black" stroke="none" style="-webkit-tap-highlight-color: rgba(0, 0, 0, 0);"></use></marker></defs><a xlink:href="http://www.google.com" xlink:show="new" style="-webkit-tap-highlight-color: rgba(0, 0, 0, 0);"><rect x="0" y="0" width="50.47578239440918" height="36" rx="20" ry="20" fill="#ffffff" stroke="#000000" style="-webkit-tap-highlight-color: rgba(0, 0, 0, 0);" stroke-width="3" class="flowchart" id="st" transform="matrix(1,0,0,1,67.5746,27.6)"></rect></a><a xlink:href="http://www.google.com" xlink:show="new" style="-webkit-tap-highlight-color: rgba(0, 0, 0, 0);"><text x="10" y="18" text-anchor="start" font-family="&quot;Arial&quot;" font-size="14px" stroke="none" fill="#000000" style="-webkit-tap-highlight-color: rgba(0, 0, 0, 0); text-anchor: start; font-family: Arial; font-size: 14px;" id="stt" class="flowchartt" transform="matrix(1,0,0,1,67.5746,27.6)" stroke-width="1"><tspan dy="4.799999713897705" style="-webkit-tap-highlight-color: rgba(0, 0, 0, 0);">Start</tspan></text></a><rect x="0" y="0" width="104.248046875" height="36" rx="0" ry="0" fill="#ffffff" stroke="#000000" style="-webkit-tap-highlight-color: rgba(0, 0, 0, 0);" stroke-width="3" class="flowchart" id="op1" transform="matrix(1,0,0,1,40.6885,141.2)"></rect><text x="10" y="18" text-anchor="start" font-family="&quot;Arial&quot;" font-size="14px" stroke="none" fill="#000000" style="-webkit-tap-highlight-color: rgba(0, 0, 0, 0); text-anchor: start; font-family: Arial; font-size: 14px;" id="op1t" class="flowchartt" transform="matrix(1,0,0,1,40.6885,141.2)" stroke-width="1"><tspan dy="4.799999713897705" style="-webkit-tap-highlight-color: rgba(0, 0, 0, 0);">My Operation</tspan></text><a xlink:href="http://www.google.com" style="-webkit-tap-highlight-color: rgba(0, 0, 0, 0);"><path fill="#ffffff" stroke="#000000" d="M27.387890338897705,19.799999713897705L0,39.59999942779541L54.77578067779541,79.19999885559082L109.55156135559082,39.59999942779541L54.77578067779541,0L0,39.59999942779541" stroke-width="3" id="cond" class="flowchart" style="-webkit-tap-highlight-color: rgba(0, 0, 0, 0);" transform="matrix(1,0,0,1,38.0367,233.2)"></path></a><a xlink:href="http://www.google.com" style="-webkit-tap-highlight-color: rgba(0, 0, 0, 0);"><text x="32.387890338897705" y="39.59999942779541" text-anchor="start" font-family="&quot;Arial&quot;" font-size="14px" stroke="none" fill="#000000" style="-webkit-tap-highlight-color: rgba(0, 0, 0, 0); text-anchor: start; font-family: Arial; font-size: 14px;" id="condt" class="flowchartt" transform="matrix(1,0,0,1,38.0367,233.2)" stroke-width="1"><tspan dy="-3.600003242492676" style="-webkit-tap-highlight-color: rgba(0, 0, 0, 0);">Yes</tspan><tspan dy="16.8" x="32.387890338897705" style="-webkit-tap-highlight-color: rgba(0, 0, 0, 0);">or No?</tspan></text></a><path fill="#ffffff" stroke="#000000" d="M10,18L0,36L153.625,36L173.625,0L20,0L10,18" stroke-width="3" id="io" class="flowchart" style="-webkit-tap-highlight-color: rgba(0, 0, 0, 0);" transform="matrix(1,0,0,1,6,390)"></path><text x="30" y="18" text-anchor="start" font-family="&quot;Arial&quot;" font-size="14px" stroke="none" fill="#000000" style="-webkit-tap-highlight-color: rgba(0, 0, 0, 0); text-anchor: start; font-family: Arial; font-size: 14px;" id="iot" class="flowchartt" transform="matrix(1,0,0,1,6,390)" stroke-width="1"><tspan dy="4.799999713897705" style="-webkit-tap-highlight-color: rgba(0, 0, 0, 0);">catch something...</tspan></text><a xlink:href="http://www.google.com" style="-webkit-tap-highlight-color: rgba(0, 0, 0, 0);"><rect x="0" y="0" width="44.91250038146973" height="36" rx="20" ry="20" fill="#ffffff" stroke="#000000" style="-webkit-tap-highlight-color: rgba(0, 0, 0, 0);" stroke-width="3" class="flowchart" id="e" transform="matrix(1,0,0,1,70.3562,503.6)"></rect></a><a xlink:href="http://www.google.com" style="-webkit-tap-highlight-color: rgba(0, 0, 0, 0);"><text x="10" y="18" text-anchor="start" font-family="&quot;Arial&quot;" font-size="14px" stroke="none" fill="#000000" style="-webkit-tap-highlight-color: rgba(0, 0, 0, 0); text-anchor: start; font-family: Arial; font-size: 14px;" id="et" class="flowchartt" transform="matrix(1,0,0,1,70.3562,503.6)" stroke-width="1"><tspan dy="4.799999713897705" style="-webkit-tap-highlight-color: rgba(0, 0, 0, 0);">End</tspan></text></a><rect x="0" y="0" width="101.90312957763672" height="36" rx="0" ry="0" fill="#ffffff" stroke="#000000" style="-webkit-tap-highlight-color: rgba(0, 0, 0, 0);" stroke-width="3" class="flowchart" id="para" transform="matrix(1,0,0,1,239.4492,254.8)"></rect><text x="10" y="18" text-anchor="start" font-family="&quot;Arial&quot;" font-size="14px" stroke="none" fill="#000000" style="-webkit-tap-highlight-color: rgba(0, 0, 0, 0); text-anchor: start; font-family: Arial; font-size: 14px;" id="parat" class="flowchartt" transform="matrix(1,0,0,1,239.4492,254.8)" stroke-width="1"><tspan dy="4.799999713897705" style="-webkit-tap-highlight-color: rgba(0, 0, 0, 0);">parallel tasks</tspan></text><rect x="0" y="0" width="130.482421875" height="36" rx="0" ry="0" fill="#ffffff" stroke="#000000" style="-webkit-tap-highlight-color: rgba(0, 0, 0, 0);" stroke-width="3" class="flowchart" id="sub1" transform="matrix(1,0,0,1,225.1596,368.4)"></rect><rect x="10" y="0" width="110.482421875" height="36" rx="0" ry="0" fill="#ffffff" stroke="#000000" style="-webkit-tap-highlight-color: rgba(0, 0, 0, 0);" stroke-width="3" id="sub1i" transform="matrix(1,0,0,1,225.1596,368.4)"></rect><text x="20" y="18" text-anchor="start" font-family="&quot;Arial&quot;" font-size="14px" stroke="none" fill="#000000" style="-webkit-tap-highlight-color: rgba(0, 0, 0, 0); text-anchor: start; font-family: Arial; font-size: 14px;" id="sub1t" class="flowchartt" transform="matrix(1,0,0,1,225.1596,368.4)" stroke-width="1"><tspan dy="4.799999713897705" style="-webkit-tap-highlight-color: rgba(0, 0, 0, 0);">My Subroutine</tspan></text><path fill="#ffffff" stroke="#000000" d="M10,18L20,36L89.234375,36L109.234375,0L0,0L10,18" stroke-width="3" id="in" class="flowchart" style="-webkit-tap-highlight-color: rgba(0, 0, 0, 0);" transform="matrix(1,0,0,1,429.5477,254.8)"></path><text x="30" y="18" text-anchor="start" font-family="&quot;Arial&quot;" font-size="14px" stroke="none" fill="#000000" style="-webkit-tap-highlight-color: rgba(0, 0, 0, 0); text-anchor: start; font-family: Arial; font-size: 14px;" id="int" class="flowchartt" transform="matrix(1,0,0,1,429.5477,254.8)" stroke-width="1"><tspan dy="4.799999713897705" style="-webkit-tap-highlight-color: rgba(0, 0, 0, 0);">some in</tspan></text><path fill="#ffffff" stroke="#000000" d="M10,18L0,36L118.49628829956055,36L98.49628829956055,0L20,0L10,18" stroke-width="3" id="out" class="flowchart" style="-webkit-tap-highlight-color: rgba(0, 0, 0, 0);" transform="matrix(1,0,0,1,424.9167,368.4)"></path><text x="30" y="18" text-anchor="start" font-family="&quot;Arial&quot;" font-size="14px" stroke="none" fill="#000000" style="-webkit-tap-highlight-color: rgba(0, 0, 0, 0); text-anchor: start; font-family: Arial; font-size: 14px;" id="outt" class="flowchartt" transform="matrix(1,0,0,1,424.9167,368.4)" stroke-width="1"><tspan dy="4.799999713897705" style="-webkit-tap-highlight-color: rgba(0, 0, 0, 0);">some out</tspan></text><path fill="none" stroke="#000000" d="M92.8125,63.59999942779541C92.8125,63.59999942779541,92.8125,120.13073936739602,92.8125,136.6924795840759" stroke-width="3" marker-end="url(#raphael-marker-endblock33-obj5301o)" style="-webkit-tap-highlight-color: rgba(0, 0, 0, 0);"></path><path fill="none" stroke="#000000" d="M92.8125,177.19999885559082C92.8125,177.19999885559082,92.8125,215.40076971054077,92.8125,228.70015917322598" stroke-width="3" marker-end="url(#raphael-marker-endblock33-obj7og9y)" style="-webkit-tap-highlight-color: rgba(0, 0, 0, 0);"></path><path fill="none" stroke="#000000" d="M92.8125,312.39999771118164C92.8125,312.39999771118164,92.8125,368.93073765078225,92.8125,385.49247786746207" stroke-width="3" marker-end="url(#raphael-marker-endblock33-objh5ezk)" style="-webkit-tap-highlight-color: rgba(0, 0, 0, 0);"></path><text x="97.8125" y="322.39999771118164" text-anchor="start" font-family="&quot;Arial&quot;" font-size="14px" stroke="none" fill="#000000" style="-webkit-tap-highlight-color: rgba(0, 0, 0, 0); text-anchor: start; font-family: Arial; font-size: 14px;" stroke-width="1"><tspan dy="4.799991607666016" style="-webkit-tap-highlight-color: rgba(0, 0, 0, 0);">yes</tspan></text><path fill="none" stroke="#000000" d="M147.5882806777954,272.79999828338623C147.5882806777954,272.79999828338623,216.51350511089913,272.79999828338623,234.9563874299132,272.79999828338623" stroke-width="3" marker-end="url(#raphael-marker-endblock33-objfia23)" style="-webkit-tap-highlight-color: rgba(0, 0, 0, 0);"></path><text x="152.5882806777954" y="262.79999828338623" text-anchor="start" font-family="&quot;Arial&quot;" font-size="14px" stroke="none" fill="#000000" style="-webkit-tap-highlight-color: rgba(0, 0, 0, 0); text-anchor: start; font-family: Arial; font-size: 14px;" stroke-width="1"><tspan dy="4.7999982833862305" style="-webkit-tap-highlight-color: rgba(0, 0, 0, 0);">no</tspan></text><path fill="none" stroke="#000000" d="M92.8125,425.99999713897705C92.8125,425.99999713897705,92.8125,482.53073707857766,92.8125,499.09247729525754" stroke-width="3" marker-end="url(#raphael-marker-endblock33-obj46rka)" style="-webkit-tap-highlight-color: rgba(0, 0, 0, 0);"></path><path fill="none" stroke="#000000" d="M290.4007806777954,290.79999828338623C290.4007806777954,290.79999828338623,290.4007806777954,347.33073822298684,290.4007806777954,363.89247843966666" stroke-width="3" marker-end="url(#raphael-marker-endblock33-objzz9gj)" style="-webkit-tap-highlight-color: rgba(0, 0, 0, 0);"></path><path fill="none" stroke="#000000" d="M290.4007806777954,254.79999828338623C290.4007806777954,254.79999828338623,290.4007806777954,106.19999885559082,290.4007806777954,106.19999885559082C290.4007806777954,106.19999885559082,92.8125,106.19999885559082,92.8125,106.19999885559082C92.8125,106.19999885559082,92.8125,127.24307060241699,92.8125,136.69601298868656" stroke-width="3" marker-end="url(#raphael-marker-endblock33-objz71ww)" style="-webkit-tap-highlight-color: rgba(0, 0, 0, 0);"></path><path fill="none" stroke="#000000" d="M341.35234546661377,272.79999828338623C341.35234546661377,272.79999828338623,415.77986379154027,272.79999828338623,435.04089148304956,272.79999828338623" stroke-width="3" marker-end="url(#raphael-marker-endblock33-objs4zhg)" style="-webkit-tap-highlight-color: rgba(0, 0, 0, 0);"></path><path fill="none" stroke="#000000" d="M355.6419916152954,386.39999771118164C355.6419916152954,386.39999771118164,380.6419916152954,386.39999771118164,380.6419916152954,386.39999771118164C380.6419916152954,386.39999771118164,380.6419916152954,278.79999828338623,380.6419916152954,278.79999828338623C380.6419916152954,278.79999828338623,392.6419916152954,272.79999828338623,380.6419916152954,266.79999828338623C380.6419916152954,266.79999828338623,380.6419916152954,96.19999885559082,380.6419916152954,96.19999885559082C380.6419916152954,96.19999885559082,92.8125,96.19999885559082,92.8125,96.19999885559082C92.8125,96.19999885559082,92.8125,125.30313611030579,92.8125,136.69997013290413" stroke-width="3" marker-end="url(#raphael-marker-endblock33-obj3fdtz)" style="-webkit-tap-highlight-color: rgba(0, 0, 0, 0);"></path><path fill="none" stroke="#000000" d="M484.16484546661377,290.79999828338623C484.16484546661377,290.79999828338623,484.16484546661377,347.33073822298684,484.16484546661377,363.89247843966666" stroke-width="3" marker-end="url(#raphael-marker-endblock33-obj67yhr)" style="-webkit-tap-highlight-color: rgba(0, 0, 0, 0);"></path><path fill="none" stroke="#000000" d="M484.16484546661377,404.39999771118164C484.16484546661377,404.39999771118164,484.16484546661377,468.59999656677246,484.16484546661377,468.59999656677246C484.16484546661377,468.59999656677246,92.8125,468.59999656677246,92.8125,468.59999656677246C92.8125,468.59999656677246,92.8125,489.64306831359863,92.8125,499.0960106998682" stroke-width="3" marker-end="url(#raphael-marker-endblock33-obj5015z)" style="-webkit-tap-highlight-color: rgba(0, 0, 0, 0);"></path></svg>