<svg xmlns="http://www.w3.org/2000/svg" version="1.1" viewBox="-5 -41 310.4187545776367 407.20000000000005"><metadata>title Labyrinth

Bowie -&gt; Goblin: You remind me of the babe
Goblin -&gt; Bowie: What babe?
Bowie -&gt; Goblin: The babe with the power
Goblin -&gt; Bowie: What power?
note right of Bowie, Goblin: Most people get muddled here!
Bowie -&gt; Goblin: "The power of voodoo"
Goblin -&gt; Bowie: "Who-do?"
Bowie -&gt; Goblin: You do!
Goblin -&gt; Bowie: Do what?
Bowie -&gt; Goblin: Remind me of the babe!

Bowie -&gt; Audience: Sings

terminators box
</metadata><defs></defs><defs><mask id="R0FullMask" maskUnits="userSpaceOnUse"><rect fill="#FFFFFF" height="407.20000000000005" width="310.4187545776367" x="-5" y="-41"></rect></mask><mask id="R0LineMask" maskUnits="userSpaceOnUse"><rect fill="#FFFFFF" height="407.20000000000005" width="310.4187545776367" x="-5" y="-41"></rect><rect fill="#000000" height="11.4" width="101.7750015258789" x="44.84375" y="37.6"></rect><rect fill="#000000" height="11.4" width="49.150001525878906" x="71.15625" y="61.00000000000001"></rect><rect fill="#000000" height="11.4" width="93.61250305175781" x="48.92499923706055" y="84.4"></rect><rect fill="#000000" height="11.4" width="53.13750076293945" x="69.16250038146973" y="107.80000000000001"></rect><rect fill="#000000" height="11.4" width="81.1624984741211" x="55.150001525878906" y="161.60000000000002"></rect><rect fill="#000000" height="11.4" width="38.462501525878906" x="76.5" y="185.00000000000003"></rect><rect fill="#000000" height="11.4" width="32.85000038146973" x="79.30625057220459" y="208.40000000000003"></rect><rect fill="#000000" height="11.4" width="39.79999923706055" x="75.83125114440918" y="231.80000000000004"></rect><rect fill="#000000" height="11.4" width="91.38749694824219" x="50.03750228881836" y="255.20000000000002"></rect><rect fill="#000000" height="11.4" width="26.012500762939453" x="118.90937519073486" y="314.20000000000005"></rect></mask></defs><g></g><g><text x="150.20937728881836" class="title" font-family="Helvetica,Arial,Liberation Sans,sans-serif" font-size="20" line-height="1.3" text-anchor="middle" y="-16">Labyrinth</text></g><g></g><g mask="url(#R0FullMask)"><g mask="url(#R0LineMask)"><line fill="none" stroke="#000000" stroke-width="1" x1="36.34375" x2="36.34375" y1="25.6" y2="335.6" class="agent-1-line"></line><line fill="none" stroke="#000000" stroke-width="1" x1="155.1187515258789" x2="155.1187515258789" y1="25.6" y2="335.6" class="agent-2-line"></line><line fill="none" stroke="#000000" stroke-width="1" x1="227.48750114440918" x2="227.48750114440918" y1="302.20000000000005" y2="335.6" class="agent-3-line"></line></g><g></g><g><g class="region"><g><rect fill="#FFFFFF" stroke="#000000" stroke-width="1" height="25.6" width="52.6875" x="10" y="0"></rect><g><text x="36.34375" font-family="Helvetica,Arial,Liberation Sans,sans-serif" font-size="12" line-height="1.3" text-anchor="middle" y="17">Bowie</text></g></g><rect class="outline" fill="transparent" height="25.6" width="52.6875" x="10" y="0"></rect></g><g class="region"><g><rect fill="#FFFFFF" stroke="#000000" stroke-width="1" height="25.6" width="54.6875" x="127.7750015258789" y="0"></rect><g><text x="155.1187515258789" font-family="Helvetica,Arial,Liberation Sans,sans-serif" font-size="12" line-height="1.3" text-anchor="middle" y="17">Goblin</text></g></g><rect class="outline" fill="transparent" height="25.6" width="54.6875" x="127.7750015258789" y="0"></rect></g><g class="region"><path d="M36.34375 49L152.1187515258789 49" fill="none" stroke="#000000" stroke-width="1"></path><polygon points="149.6187515258789 54 154.6187515258789 49 149.6187515258789 44" fill="#000000" stroke-width="0" stroke-linejoin="miter"></polygon><path class="outline" fill="transparent" d="M36.34375,35.6L155.1187515258789,35.6L155.1187515258789,54L36.34375,54Z"></path><g><text x="95.73125076293945" font-family="Helvetica,Arial,Liberation Sans,sans-serif" font-size="8" line-height="1.3" text-anchor="middle" y="45.6">You remind me of the babe</text></g></g><g class="region"><path d="M155.1187515258789 72.4L39.34375 72.4" fill="none" stroke="#000000" stroke-width="1"></path><polygon points="41.84375 67.4 36.84375 72.4 41.84375 77.4" fill="#000000" stroke-width="0" stroke-linejoin="miter"></polygon><path class="outline" fill="transparent" d="M155.1187515258789,59.00000000000001L36.34375,59.00000000000001L36.34375,77.4L155.1187515258789,77.4Z"></path><g><text x="95.73125076293945" font-family="Helvetica,Arial,Liberation Sans,sans-serif" font-size="8" line-height="1.3" text-anchor="middle" y="69">What babe?</text></g></g><g class="region"><path d="M36.34375 95.80000000000001L152.1187515258789 95.80000000000001" fill="none" stroke="#000000" stroke-width="1"></path><polygon points="149.6187515258789 100.80000000000001 154.6187515258789 95.80000000000001 149.6187515258789 90.80000000000001" fill="#000000" stroke-width="0" stroke-linejoin="miter"></polygon><path class="outline" fill="transparent" d="M36.34375,82.4L155.1187515258789,82.4L155.1187515258789,100.80000000000001L36.34375,100.80000000000001Z"></path><g><text x="95.73125076293945" font-family="Helvetica,Arial,Liberation Sans,sans-serif" font-size="8" line-height="1.3" text-anchor="middle" y="92.4">The babe with the power</text></g></g><g class="region"><path d="M155.1187515258789 119.20000000000002L39.34375 119.20000000000002" fill="none" stroke="#000000" stroke-width="1"></path><polygon points="41.84375 114.20000000000002 36.84375 119.20000000000002 41.84375 124.20000000000002" fill="#000000" stroke-width="0" stroke-linejoin="miter"></polygon><path class="outline" fill="transparent" d="M155.1187515258789,105.80000000000001L36.34375,105.80000000000001L36.34375,124.20000000000002L155.1187515258789,124.20000000000002Z"></path><g><text x="95.73125076293945" font-family="Helvetica,Arial,Liberation Sans,sans-serif" font-size="8" line-height="1.3" text-anchor="middle" y="115.80000000000001">What power?</text></g></g><g class="region"><g><polygon points="160.1187515258789 129.20000000000002 278.4187545776367 129.20000000000002 285.4187545776367 136.20000000000002 285.4187545776367 149.60000000000002 160.1187515258789 149.60000000000002" fill="#FFFFFF" stroke="#000000" stroke-width="1"></polygon><polyline points="278.4187545776367 129.20000000000002 278.4187545776367 136.20000000000002 285.4187545776367 136.20000000000002" fill="none" stroke="#000000" stroke-width="1"></polyline></g><rect class="outline" fill="transparent" height="20.4" width="125.30000305175781" x="160.1187515258789" y="129.20000000000002"></rect><g><text x="165.1187515258789" font-family="Helvetica,Arial,Liberation Sans,sans-serif" font-size="8" line-height="1.3" y="142.20000000000002">Most people get muddled here!</text></g></g><g class="region"><path d="M36.34375 173.00000000000003L152.1187515258789 173.00000000000003" fill="none" stroke="#000000" stroke-width="1"></path><polygon points="149.6187515258789 178.00000000000003 154.6187515258789 173.00000000000003 149.6187515258789 168.00000000000003" fill="#000000" stroke-width="0" stroke-linejoin="miter"></polygon><path class="outline" fill="transparent" d="M36.34375,159.60000000000002L155.1187515258789,159.60000000000002L155.1187515258789,178.00000000000003L36.34375,178.00000000000003Z"></path><g><text x="95.73125076293945" font-family="Helvetica,Arial,Liberation Sans,sans-serif" font-size="8" line-height="1.3" text-anchor="middle" y="169.60000000000002">The power of voodoo</text></g></g><g class="region"><path d="M155.1187515258789 196.40000000000003L39.34375 196.40000000000003" fill="none" stroke="#000000" stroke-width="1"></path><polygon points="41.84375 191.40000000000003 36.84375 196.40000000000003 41.84375 201.40000000000003" fill="#000000" stroke-width="0" stroke-linejoin="miter"></polygon><path class="outline" fill="transparent" d="M155.1187515258789,183.00000000000003L36.34375,183.00000000000003L36.34375,201.40000000000003L155.1187515258789,201.40000000000003Z"></path><g><text x="95.73125076293945" font-family="Helvetica,Arial,Liberation Sans,sans-serif" font-size="8" line-height="1.3" text-anchor="middle" y="193.00000000000003">Who-do?</text></g></g><g class="region"><path d="M36.34375 219.80000000000004L152.1187515258789 219.80000000000004" fill="none" stroke="#000000" stroke-width="1"></path><polygon points="149.6187515258789 224.80000000000004 154.6187515258789 219.80000000000004 149.6187515258789 214.80000000000004" fill="#000000" stroke-width="0" stroke-linejoin="miter"></polygon><path class="outline" fill="transparent" d="M36.34375,206.40000000000003L155.1187515258789,206.40000000000003L155.1187515258789,224.80000000000004L36.34375,224.80000000000004Z"></path><g><text x="95.73125076293945" font-family="Helvetica,Arial,Liberation Sans,sans-serif" font-size="8" line-height="1.3" text-anchor="middle" y="216.40000000000003">You do!</text></g></g><g class="region"><path d="M155.1187515258789 243.20000000000005L39.34375 243.20000000000005" fill="none" stroke="#000000" stroke-width="1"></path><polygon points="41.84375 238.20000000000005 36.84375 243.20000000000005 41.84375 248.20000000000005" fill="#000000" stroke-width="0" stroke-linejoin="miter"></polygon><path class="outline" fill="transparent" d="M155.1187515258789,229.80000000000004L36.34375,229.80000000000004L36.34375,248.20000000000005L155.1187515258789,248.20000000000005Z"></path><g><text x="95.73125076293945" font-family="Helvetica,Arial,Liberation Sans,sans-serif" font-size="8" line-height="1.3" text-anchor="middle" y="239.80000000000004">Do what?</text></g></g><g class="region"><path d="M36.34375 266.6L152.1187515258789 266.6" fill="none" stroke="#000000" stroke-width="1"></path><polygon points="149.6187515258789 271.6 154.6187515258789 266.6 149.6187515258789 261.6" fill="#000000" stroke-width="0" stroke-linejoin="miter"></polygon><path class="outline" fill="transparent" d="M36.34375,253.20000000000002L155.1187515258789,253.20000000000002L155.1187515258789,271.6L36.34375,271.6Z"></path><g><text x="95.73125076293945" font-family="Helvetica,Arial,Liberation Sans,sans-serif" font-size="8" line-height="1.3" text-anchor="middle" y="263.20000000000005">Remind me of the babe!</text></g></g><g class="region"><g><rect fill="#FFFFFF" stroke="#000000" stroke-width="1" height="25.6" width="70.04999923706055" x="192.4625015258789" y="276.6"></rect><g><text x="227.48750114440918" font-family="Helvetica,Arial,Liberation Sans,sans-serif" font-size="12" line-height="1.3" text-anchor="middle" y="293.6">Audience</text></g></g><rect class="outline" fill="transparent" height="25.6" width="70.04999923706055" x="192.4625015258789" y="276.6"></rect></g><g class="region"><path d="M36.34375 325.6L224.48750114440918 325.6" fill="none" stroke="#000000" stroke-width="1"></path><polygon points="221.98750114440918 330.6 226.98750114440918 325.6 221.98750114440918 320.6" fill="#000000" stroke-width="0" stroke-linejoin="miter"></polygon><path class="outline" fill="transparent" d="M36.34375,312.20000000000005L227.48750114440918,312.20000000000005L227.48750114440918,330.6L36.34375,330.6Z"></path><g><text x="131.9156255722046" font-family="Helvetica,Arial,Liberation Sans,sans-serif" font-size="8" line-height="1.3" text-anchor="middle" y="322.20000000000005">Sings</text></g></g><g class="region"><g><rect fill="#FFFFFF" stroke="#000000" stroke-width="1" height="25.6" width="52.6875" x="10" y="335.6"></rect><g><text x="36.34375" font-family="Helvetica,Arial,Liberation Sans,sans-serif" font-size="12" line-height="1.3" text-anchor="middle" y="352.6">Bowie</text></g></g><rect class="outline" fill="transparent" height="25.6" width="52.6875" x="10" y="335.6"></rect></g><g class="region"><g><rect fill="#FFFFFF" stroke="#000000" stroke-width="1" height="25.6" width="54.6875" x="127.7750015258789" y="335.6"></rect><g><text x="155.1187515258789" font-family="Helvetica,Arial,Liberation Sans,sans-serif" font-size="12" line-height="1.3" text-anchor="middle" y="352.6">Goblin</text></g></g><rect class="outline" fill="transparent" height="25.6" width="54.6875" x="127.7750015258789" y="335.6"></rect></g><g class="region"><g><rect fill="#FFFFFF" stroke="#000000" stroke-width="1" height="25.6" width="70.04999923706055" x="192.4625015258789" y="335.6"></rect><g><text x="227.48750114440918" font-family="Helvetica,Arial,Liberation Sans,sans-serif" font-size="12" line-height="1.3" text-anchor="middle" y="352.6">Audience</text></g></g><rect class="outline" fill="transparent" height="25.6" width="70.04999923706055" x="192.4625015258789" y="335.6"></rect></g></g></g></svg>