<svg class="railroad-diagram" width="453" height="186" viewBox="0 0 453 186" xmlns="http://www.w3.org/2000/svg"><g transform="translate(.5 .5)"><g><path d="M20 30v20m10 -20v20m-10 -10h20"></path></g><g><path d="M40 40h0"></path><path d="M413 40h0"></path><path d="M40 40h20"></path><g><path d="M60 40h42.5"></path><path d="M350.5 40h42.5"></path><g class="terminal "><path d="M102.5 40h0"></path><path d="M131 40h0"></path><rect x="102.5" y="29" width="28.5" height="22" rx="10" ry="10"></rect><text x="116.75" y="44">"</text></g><path d="M131 40h10"></path><g><path d="M141 40h0"></path><path d="M312 40h0"></path><path d="M141 40a10 10 0 0 0 10 -10v0a10 10 0 0 1 10 -10"></path><g><path d="M161 20h131"></path></g><path d="M292 20a10 10 0 0 1 10 10v0a10 10 0 0 0 10 10"></path><path d="M141 40h20"></path><g><path d="M161 40h0"></path><path d="M292 40h0"></path><path d="M161 40h10"></path><g><path d="M171 40h0"></path><path d="M282 40h0"></path><path d="M171 40h20"></path><g class="non-terminal "><path d="M191 40h8.5"></path><path d="M253.5 40h8.5"></path><rect x="199.5" y="29" width="54" height="22"></rect><text x="226.5" y="44">中文测试</text></g><path d="M262 40h20"></path><path d="M171 40a10 10 0 0 1 10 10v10a10 10 0 0 0 10 10"></path><g class="non-terminal "><path d="M191 70h0"></path><path d="M262 70h0"></path><rect x="191" y="59" width="71" height="22"></rect><text x="226.5" y="74">escape</text></g><path d="M262 70a10 10 0 0 0 10 -10v-10a10 10 0 0 1 10 -10"></path></g><path d="M282 40h10"></path><path d="M171 40a10 10 0 0 0 -10 10v29a10 10 0 0 0 10 10"></path><g><path d="M171 89h111"></path></g><path d="M282 89a10 10 0 0 0 10 -10v-29a10 10 0 0 0 -10 -10"></path></g><path d="M292 40h20"></path></g><path d="M312 40h10"></path><g class="terminal "><path d="M322 40h0"></path><path d="M350.5 40h0"></path><rect x="322" y="29" width="28.5" height="22" rx="10" ry="10"></rect><text x="336.25" y="44">"</text></g></g><path d="M393 40h20"></path><path d="M40 40a10 10 0 0 1 10 10v57a10 10 0 0 0 10 10"></path><g><path d="M60 117h0"></path><path d="M393 117h0"></path><g class="terminal "><path d="M60 117h0"></path><path d="M88.5 117h0"></path><rect x="60" y="106" width="28.5" height="22" rx="10" ry="10"></rect><text x="74.25" y="121">'</text></g><path d="M88.5 117h10"></path><g><path d="M98.5 117h0"></path><path d="M354.5 117h0"></path><path d="M98.5 117a10 10 0 0 0 10 -10v0a10 10 0 0 1 10 -10"></path><g><path d="M118.5 97h216"></path></g><path d="M334.5 97a10 10 0 0 1 10 10v0a10 10 0 0 0 10 10"></path><path d="M98.5 117h20"></path><g><path d="M118.5 117h0"></path><path d="M334.5 117h0"></path><path d="M118.5 117h10"></path><g><path d="M128.5 117h0"></path><path d="M324.5 117h0"></path><path d="M128.5 117h20"></path><g class="non-terminal "><path d="M148.5 117h0"></path><path d="M304.5 117h0"></path><rect x="148.5" y="106" width="156" height="22"></rect><text x="226.5" y="121">中文测试测试测试测试测试测试测试</text></g><path d="M304.5 117h20"></path><path d="M128.5 117a10 10 0 0 1 10 10v10a10 10 0 0 0 10 10"></path><g class="non-terminal "><path d="M148.5 147h42.5"></path><path d="M262 147h42.5"></path><rect x="191" y="136" width="71" height="22"></rect><text x="226.5" y="151">escape</text></g><path d="M304.5 147a10 10 0 0 0 10 -10v-10a10 10 0 0 1 10 -10"></path></g><path d="M324.5 117h10"></path><path d="M128.5 117a10 10 0 0 0 -10 10v29a10 10 0 0 0 10 10"></path><g><path d="M128.5 166h196"></path></g><path d="M324.5 166a10 10 0 0 0 10 -10v-29a10 10 0 0 0 -10 -10"></path></g><path d="M334.5 117h20"></path></g><path d="M354.5 117h10"></path><g class="terminal "><path d="M364.5 117h0"></path><path d="M393 117h0"></path><rect x="364.5" y="106" width="28.5" height="22" rx="10" ry="10"></rect><text x="378.75" y="121">'</text></g></g><path d="M393 117a10 10 0 0 0 10 -10v-57a10 10 0 0 1 10 -10"></path></g><path d="M 413 40 h 20 m -10 -10 v 20 m 10 -20 v 20"></path></g><style>svg.railroad-diagram {
    background-color: hsl(30,20%,95%);
}
svg.railroad-diagram path {
    stroke-width: 3;
    stroke: black;
    fill: rgba(0,0,0,0);
}
svg.railroad-diagram text {
    font-size: 14px;
    font-weight: bold;
    font-family: Consolas, monospace;
    text-anchor: middle;
    white-space: pre;
}
svg.railroad-diagram text.diagram-text {
    font-size: 12px;
}
svg.railroad-diagram text.diagram-arrow {
    font-size: 16px;
}
svg.railroad-diagram text.label {
    text-anchor: start;
}
svg.railroad-diagram text.comment {
    font: italic 12px monospace;
}
svg.railroad-diagram g.non-terminal text {
    /*font-style: italic;*/
}
svg.railroad-diagram rect {
    stroke-width: 3;
    stroke: black;
    fill: #f5f5f5;
}
svg.railroad-diagram rect.group-box {
    stroke: gray;
    stroke-dasharray: 10 5;
    fill: none;
}
svg.railroad-diagram path.diagram-text {
    stroke-width: 3;
    stroke: black;
    fill: white;
    cursor: help;
}
svg.railroad-diagram g.diagram-text:hover path.diagram-text {
    fill: #eee;
}
</style></svg>