<svg class="railroad-diagram" width="558" height="109" viewBox="0 0 558 109" xmlns="http://www.w3.org/2000/svg"><g transform="translate(.5 .5)"><g><path d="M20 30v20m10 -20v20m-10 -10h20"></path></g><g><path d="M40 40h0"></path><path d="M108.5 40h0"></path><path d="M40 40h20"></path><g><path d="M60 40h28.5"></path></g><path d="M88.5 40h20"></path><path d="M40 40a10 10 0 0 1 10 10v0a10 10 0 0 0 10 10"></path><g class="terminal "><path d="M60 60h0"></path><path d="M88.5 60h0"></path><rect x="60" y="49" width="28.5" height="22" rx="10" ry="10"></rect><text x="74.25" y="64">+</text></g><path d="M88.5 60a10 10 0 0 0 10 -10v0a10 10 0 0 1 10 -10"></path></g><g><path d="M108.5 40h0"></path><path d="M321.5 40h0"></path><path d="M108.5 40h20"></path><g class="non-terminal "><path d="M128.5 40h0"></path><path d="M301.5 40h0"></path><rect x="128.5" y="29" width="173" height="22"></rect><text x="215" y="44"> 中文测试测试测试测试测试测试测试 </text></g><path d="M301.5 40h20"></path><path d="M108.5 40a10 10 0 0 1 10 10v10a10 10 0 0 0 10 10"></path><g class="non-terminal "><path d="M128.5 70h51"></path><path d="M250.5 70h51"></path><rect x="179.5" y="59" width="71" height="22"></rect><text x="215" y="74">escape</text></g><path d="M301.5 70a10 10 0 0 0 10 -10v-10a10 10 0 0 1 10 -10"></path></g><g><path d="M321.5 40h0"></path><path d="M518 40h0"></path><path d="M321.5 40a10 10 0 0 0 10 -10v0a10 10 0 0 1 10 -10"></path><g><path d="M341.5 20h156.5"></path></g><path d="M498 20a10 10 0 0 1 10 10v0a10 10 0 0 0 10 10"></path><path d="M321.5 40h20"></path><g><path d="M341.5 40h0"></path><path d="M498 40h0"></path><path d="M341.5 40h10"></path><g><path d="M351.5 40h0"></path><path d="M488 40h0"></path><path d="M351.5 40h20"></path><g class="non-terminal "><path d="M371.5 40h0"></path><path d="M468 40h0"></path><rect x="371.5" y="29" width="96.5" height="22"></rect><text x="419.75" y="44">name char</text></g><path d="M468 40h20"></path><path d="M351.5 40a10 10 0 0 1 10 10v10a10 10 0 0 0 10 10"></path><g class="non-terminal "><path d="M371.5 70h12.75"></path><path d="M455.25 70h12.75"></path><rect x="384.25" y="59" width="71" height="22"></rect><text x="419.75" y="74">escape</text></g><path d="M468 70a10 10 0 0 0 10 -10v-10a10 10 0 0 1 10 -10"></path></g><path d="M488 40h10"></path><path d="M351.5 40a10 10 0 0 0 -10 10v29a10 10 0 0 0 10 10"></path><g><path d="M351.5 89h136.5"></path></g><path d="M488 89a10 10 0 0 0 10 -10v-29a10 10 0 0 0 -10 -10"></path></g><path d="M498 40h20"></path></g><path d="M 518 40 h 20 m -10 -10 v 20 m 10 -20 v 20"></path></g><style>svg.railroad-diagram {
    background-color: hsl(30,20%,95%);
}
svg.railroad-diagram path {
    stroke-width: 3;
    stroke: black;
    fill: rgba(0,0,0,0);
}
svg.railroad-diagram text {
    font-size: 14px;
    font-weight: bold;
    font-family: Consolas, monospace;
    text-anchor: middle;
    white-space: pre;
}
svg.railroad-diagram text.diagram-text {
    font-size: 12px;
}
svg.railroad-diagram text.diagram-arrow {
    font-size: 16px;
}
svg.railroad-diagram text.label {
    text-anchor: start;
}
svg.railroad-diagram text.comment {
    font: italic 12px monospace;
}
svg.railroad-diagram g.non-terminal text {
    /*font-style: italic;*/
}
svg.railroad-diagram rect {
    stroke-width: 3;
    stroke: black;
    fill: #f5f5f5;
}
svg.railroad-diagram rect.group-box {
    stroke: gray;
    stroke-dasharray: 10 5;
    fill: none;
}
svg.railroad-diagram path.diagram-text {
    stroke-width: 3;
    stroke: black;
    fill: white;
    cursor: help;
}
svg.railroad-diagram g.diagram-text:hover path.diagram-text {
    fill: #eee;
}
</style></svg>