<svg xmlns="http://www.w3.org/2000/svg" version="1.1" viewBox="-5 -41 310.2704257965088 407.20000000000005"><metadata>title Labyrinth

Bowie -&gt; Goblin: You remind me of the babe
Goblin -&gt; Bowie: What babe?
Bowie -&gt; Goblin: The babe with the power
Goblin -&gt; Bowie: What power?
note right of Bowie, Goblin: Most people get muddled here!
Bowie -&gt; Goblin: "The power of voodoo"
Goblin -&gt; Bowie: "Who-do?"
Bowie -&gt; Goblin: You do!
Goblin -&gt; Bowie: Do what?
Bowie -&gt; Goblin: Remind me of the babe!

Bowie -&gt; Audience: Sings

terminators box
</metadata><defs></defs><defs><mask id="R0FullMask" maskUnits="userSpaceOnUse"><rect fill="#FFFFFF" height="407.20000000000005" width="310.2704257965088" x="-5" y="-41"></rect></mask><mask id="R0LineMask" maskUnits="userSpaceOnUse"><rect fill="#FFFFFF" height="407.20000000000005" width="310.2704257965088" x="-5" y="-41"></rect><rect fill="#000000" height="11.4" width="101.7057876586914" x="44.84353828430176" y="37.6"></rect><rect fill="#000000" height="11.4" width="49.112247467041016" x="71.14030838012695" y="61.00000000000001"></rect><rect fill="#000000" height="11.4" width="93.551025390625" x="48.92091941833496" y="84.4"></rect><rect fill="#000000" height="11.4" width="53.108848571777344" x="69.14200782775879" y="107.80000000000001"></rect><rect fill="#000000" height="11.4" width="81.11054992675781" x="55.141157150268555" y="161.60000000000002"></rect><rect fill="#000000" height="11.4" width="38.44047927856445" x="76.47619247436523" y="185.00000000000003"></rect><rect fill="#000000" height="11.4" width="32.82823371887207" x="79.28231525421143" y="208.40000000000003"></rect><rect fill="#000000" height="11.4" width="39.7755126953125" x="75.80867576599121" y="231.80000000000004"></rect><rect fill="#000000" height="11.4" width="91.3316421508789" x="50.03061103820801" y="255.20000000000002"></rect><rect fill="#000000" height="11.4" width="26.000001907348633" x="118.88053226470947" y="314.20000000000005"></rect></mask></defs><g></g><g><text x="150.1352128982544" class="title" font-family="Helvetica,Arial,Liberation Sans,sans-serif" font-size="20" line-height="1.3" text-anchor="middle" y="-16">Labyrinth</text></g><g></g><g mask="url(#R0FullMask)"><g mask="url(#R0LineMask)"><line fill="none" stroke="#000000" stroke-width="1" x1="36.34353828430176" x2="36.34353828430176" y1="25.6" y2="335.6" class="agent-1-line"></line><line fill="none" stroke="#000000" stroke-width="1" x1="155.04932594299316" x2="155.04932594299316" y1="25.6" y2="335.6" class="agent-2-line"></line><line fill="none" stroke="#000000" stroke-width="1" x1="227.41752815246582" x2="227.41752815246582" y1="302.20000000000005" y2="335.6" class="agent-3-line"></line></g><g></g><g><g class="region"><g><rect fill="#FFFFFF" stroke="#000000" stroke-width="1" height="25.6" width="52.687076568603516" x="10" y="0"></rect><g><text x="36.34353828430176" font-family="Helvetica,Arial,Liberation Sans,sans-serif" font-size="12" line-height="1.3" text-anchor="middle" y="17">Bowie</text></g></g><rect class="outline" fill="transparent" height="25.6" width="52.687076568603516" x="10" y="0"></rect></g><g class="region"><g><rect fill="#FFFFFF" stroke="#000000" stroke-width="1" height="25.6" width="54.69388198852539" x="127.70238494873047" y="0"></rect><g><text x="155.04932594299316" font-family="Helvetica,Arial,Liberation Sans,sans-serif" font-size="12" line-height="1.3" text-anchor="middle" y="17">Goblin</text></g></g><rect class="outline" fill="transparent" height="25.6" width="54.69388198852539" x="127.70238494873047" y="0"></rect></g><g class="region"><path d="M36.34353828430176 49L152.04932594299316 49" fill="none" stroke="#000000" stroke-width="1"></path><polygon points="149.54932594299316 54 154.54932594299316 49 149.54932594299316 44" fill="#000000" stroke-width="0" stroke-linejoin="miter"></polygon><path class="outline" fill="transparent" d="M36.34353828430176,35.6L155.04932594299316,35.6L155.04932594299316,54L36.34353828430176,54Z"></path><g><text x="95.69643211364746" font-family="Helvetica,Arial,Liberation Sans,sans-serif" font-size="8" line-height="1.3" text-anchor="middle" y="45.6">You remind me of the babe</text></g></g><g class="region"><path d="M155.04932594299316 72.4L39.34353828430176 72.4" fill="none" stroke="#000000" stroke-width="1"></path><polygon points="41.84353828430176 67.4 36.84353828430176 72.4 41.84353828430176 77.4" fill="#000000" stroke-width="0" stroke-linejoin="miter"></polygon><path class="outline" fill="transparent" d="M155.04932594299316,59.00000000000001L36.34353828430176,59.00000000000001L36.34353828430176,77.4L155.04932594299316,77.4Z"></path><g><text x="95.69643211364746" font-family="Helvetica,Arial,Liberation Sans,sans-serif" font-size="8" line-height="1.3" text-anchor="middle" y="69">What babe?</text></g></g><g class="region"><path d="M36.34353828430176 95.80000000000001L152.04932594299316 95.80000000000001" fill="none" stroke="#000000" stroke-width="1"></path><polygon points="149.54932594299316 100.80000000000001 154.54932594299316 95.80000000000001 149.54932594299316 90.80000000000001" fill="#000000" stroke-width="0" stroke-linejoin="miter"></polygon><path class="outline" fill="transparent" d="M36.34353828430176,82.4L155.04932594299316,82.4L155.04932594299316,100.80000000000001L36.34353828430176,100.80000000000001Z"></path><g><text x="95.69643211364746" font-family="Helvetica,Arial,Liberation Sans,sans-serif" font-size="8" line-height="1.3" text-anchor="middle" y="92.4">The babe with the power</text></g></g><g class="region"><path d="M155.04932594299316 119.20000000000002L39.34353828430176 119.20000000000002" fill="none" stroke="#000000" stroke-width="1"></path><polygon points="41.84353828430176 114.20000000000002 36.84353828430176 119.20000000000002 41.84353828430176 124.20000000000002" fill="#000000" stroke-width="0" stroke-linejoin="miter"></polygon><path class="outline" fill="transparent" d="M155.04932594299316,105.80000000000001L36.34353828430176,105.80000000000001L36.34353828430176,124.20000000000002L155.04932594299316,124.20000000000002Z"></path><g><text x="95.69643211364746" font-family="Helvetica,Arial,Liberation Sans,sans-serif" font-size="8" line-height="1.3" text-anchor="middle" y="115.80000000000001">What power?</text></g></g><g class="region"><g><polygon points="160.04932594299316 129.20000000000002 278.2704257965088 129.20000000000002 285.2704257965088 136.20000000000002 285.2704257965088 149.60000000000002 160.04932594299316 149.60000000000002" fill="#FFFFFF" stroke="#000000" stroke-width="1"></polygon><polyline points="278.2704257965088 129.20000000000002 278.2704257965088 136.20000000000002 285.2704257965088 136.20000000000002" fill="none" stroke="#000000" stroke-width="1"></polyline></g><rect class="outline" fill="transparent" height="20.4" width="125.22109985351562" x="160.04932594299316" y="129.20000000000002"></rect><g><text x="165.04932594299316" font-family="Helvetica,Arial,Liberation Sans,sans-serif" font-size="8" line-height="1.3" y="142.20000000000002">Most people get muddled here!</text></g></g><g class="region"><path d="M36.34353828430176 173.00000000000003L152.04932594299316 173.00000000000003" fill="none" stroke="#000000" stroke-width="1"></path><polygon points="149.54932594299316 178.00000000000003 154.54932594299316 173.00000000000003 149.54932594299316 168.00000000000003" fill="#000000" stroke-width="0" stroke-linejoin="miter"></polygon><path class="outline" fill="transparent" d="M36.34353828430176,159.60000000000002L155.04932594299316,159.60000000000002L155.04932594299316,178.00000000000003L36.34353828430176,178.00000000000003Z"></path><g><text x="95.69643211364746" font-family="Helvetica,Arial,Liberation Sans,sans-serif" font-size="8" line-height="1.3" text-anchor="middle" y="169.60000000000002">The power of voodoo</text></g></g><g class="region"><path d="M155.04932594299316 196.40000000000003L39.34353828430176 196.40000000000003" fill="none" stroke="#000000" stroke-width="1"></path><polygon points="41.84353828430176 191.40000000000003 36.84353828430176 196.40000000000003 41.84353828430176 201.40000000000003" fill="#000000" stroke-width="0" stroke-linejoin="miter"></polygon><path class="outline" fill="transparent" d="M155.04932594299316,183.00000000000003L36.34353828430176,183.00000000000003L36.34353828430176,201.40000000000003L155.04932594299316,201.40000000000003Z"></path><g><text x="95.69643211364746" font-family="Helvetica,Arial,Liberation Sans,sans-serif" font-size="8" line-height="1.3" text-anchor="middle" y="193.00000000000003">Who-do?</text></g></g><g class="region"><path d="M36.34353828430176 219.80000000000004L152.04932594299316 219.80000000000004" fill="none" stroke="#000000" stroke-width="1"></path><polygon points="149.54932594299316 224.80000000000004 154.54932594299316 219.80000000000004 149.54932594299316 214.80000000000004" fill="#000000" stroke-width="0" stroke-linejoin="miter"></polygon><path class="outline" fill="transparent" d="M36.34353828430176,206.40000000000003L155.04932594299316,206.40000000000003L155.04932594299316,224.80000000000004L36.34353828430176,224.80000000000004Z"></path><g><text x="95.69643211364746" font-family="Helvetica,Arial,Liberation Sans,sans-serif" font-size="8" line-height="1.3" text-anchor="middle" y="216.40000000000003">You do!</text></g></g><g class="region"><path d="M155.04932594299316 243.20000000000005L39.34353828430176 243.20000000000005" fill="none" stroke="#000000" stroke-width="1"></path><polygon points="41.84353828430176 238.20000000000005 36.84353828430176 243.20000000000005 41.84353828430176 248.20000000000005" fill="#000000" stroke-width="0" stroke-linejoin="miter"></polygon><path class="outline" fill="transparent" d="M155.04932594299316,229.80000000000004L36.34353828430176,229.80000000000004L36.34353828430176,248.20000000000005L155.04932594299316,248.20000000000005Z"></path><g><text x="95.69643211364746" font-family="Helvetica,Arial,Liberation Sans,sans-serif" font-size="8" line-height="1.3" text-anchor="middle" y="239.80000000000004">Do what?</text></g></g><g class="region"><path d="M36.34353828430176 266.6L152.04932594299316 266.6" fill="none" stroke="#000000" stroke-width="1"></path><polygon points="149.54932594299316 271.6 154.54932594299316 266.6 149.54932594299316 261.6" fill="#000000" stroke-width="0" stroke-linejoin="miter"></polygon><path class="outline" fill="transparent" d="M36.34353828430176,253.20000000000002L155.04932594299316,253.20000000000002L155.04932594299316,271.6L36.34353828430176,271.6Z"></path><g><text x="95.69643211364746" font-family="Helvetica,Arial,Liberation Sans,sans-serif" font-size="8" line-height="1.3" text-anchor="middle" y="263.20000000000005">Remind me of the babe!</text></g></g><g class="region"><g><rect fill="#FFFFFF" stroke="#000000" stroke-width="1" height="25.6" width="70.04252243041992" x="192.39626693725586" y="276.6"></rect><g><text x="227.41752815246582" font-family="Helvetica,Arial,Liberation Sans,sans-serif" font-size="12" line-height="1.3" text-anchor="middle" y="293.6">Audience</text></g></g><rect class="outline" fill="transparent" height="25.6" width="70.04252243041992" x="192.39626693725586" y="276.6"></rect></g><g class="region"><path d="M36.34353828430176 325.6L224.41752815246582 325.6" fill="none" stroke="#000000" stroke-width="1"></path><polygon points="221.91752815246582 330.6 226.91752815246582 325.6 221.91752815246582 320.6" fill="#000000" stroke-width="0" stroke-linejoin="miter"></polygon><path class="outline" fill="transparent" d="M36.34353828430176,312.20000000000005L227.41752815246582,312.20000000000005L227.41752815246582,330.6L36.34353828430176,330.6Z"></path><g><text x="131.8805332183838" font-family="Helvetica,Arial,Liberation Sans,sans-serif" font-size="8" line-height="1.3" text-anchor="middle" y="322.20000000000005">Sings</text></g></g><g class="region"><g><rect fill="#FFFFFF" stroke="#000000" stroke-width="1" height="25.6" width="52.687076568603516" x="10" y="335.6"></rect><g><text x="36.34353828430176" font-family="Helvetica,Arial,Liberation Sans,sans-serif" font-size="12" line-height="1.3" text-anchor="middle" y="352.6">Bowie</text></g></g><rect class="outline" fill="transparent" height="25.6" width="52.687076568603516" x="10" y="335.6"></rect></g><g class="region"><g><rect fill="#FFFFFF" stroke="#000000" stroke-width="1" height="25.6" width="54.69388198852539" x="127.70238494873047" y="335.6"></rect><g><text x="155.04932594299316" font-family="Helvetica,Arial,Liberation Sans,sans-serif" font-size="12" line-height="1.3" text-anchor="middle" y="352.6">Goblin</text></g></g><rect class="outline" fill="transparent" height="25.6" width="54.69388198852539" x="127.70238494873047" y="335.6"></rect></g><g class="region"><g><rect fill="#FFFFFF" stroke="#000000" stroke-width="1" height="25.6" width="70.04252243041992" x="192.39626693725586" y="335.6"></rect><g><text x="227.41752815246582" font-family="Helvetica,Arial,Liberation Sans,sans-serif" font-size="12" line-height="1.3" text-anchor="middle" y="352.6">Audience</text></g></g><rect class="outline" fill="transparent" height="25.6" width="70.04252243041992" x="192.39626693725586" y="335.6"></rect></g></g></g></svg>